<svg width="47" height="60" fill="none" xmlns="http://www.w3.org/2000/svg"><path d="M6.616 60a5.63 5.63 0 01-5.625-5.625 5.63 5.63 0 015.625-5.625.936.936 0 110 1.875 3.754 3.754 0 00-3.75 3.75 3.754 3.754 0 003.75 3.75.936.936 0 110 1.875z" fill="#A9AFC3"/><path d="M45.992 50.625H6.616a.936.936 0 110-1.875h39.376a.936.936 0 110 1.875zm0 9.375H6.616a.936.936 0 110-1.875h39.376a.936.936 0 110 1.875zM1.929 6.563a.937.937 0 01-.938-.938A5.63 5.63 0 016.616 0a.937.937 0 110 1.875 3.754 3.754 0 00-3.75 3.75.937.937 0 01-.937.938z" fill="#A9AFC3"/><path d="M1.929 55.313a.936.936 0 01-.938-.938V5.625a.937.937 0 111.875 0v48.75a.936.936 0 01-.937.938zM45.992 1.875H6.616a.937.937 0 110-1.875h39.376a.937.937 0 110 1.875z" fill="#A9AFC3"/><path d="M45.992 50.625a.936.936 0 01-.938-.938V.938a.937.937 0 111.875 0v48.75a.936.936 0 01-.938.938z" fill="#A9AFC3"/><path d="M45.992 60a.936.936 0 01-.938-.938v-9.374a.936.936 0 111.875 0v9.374a.936.936 0 01-.938.938zM8.491 50.625a.936.936 0 01-.937-.938V.938a.937.937 0 111.875 0v48.75a.936.936 0 01-.938.938zm33.751 4.689H6.616a.936.936 0 110-1.875h35.626a.937.937 0 110 1.875z" fill="#A9AFC3"/><path d="M42.242 60a.936.936 0 01-.938-.938v-9.374a.936.936 0 111.875 0v9.374a.936.936 0 01-.938.938zM38.51 40.328H16.003a.937.937 0 110-1.875H38.51a.936.936 0 110 1.875zm-5.625 2.812H21.63a.937.937 0 110-1.876h11.255a.936.936 0 110 1.875zm2.807-30H18.82a.937.937 0 110-1.876h16.873a.937.937 0 110 1.875z" fill="#A9AFC3"/><path d="M27.257 31.892a.937.937 0 01-.938-.938V9.39a.937.937 0 111.875 0v21.565c0 .518-.42.938-.937.938z" fill="#A9AFC3"/><path d="M34.757 31.892h-15a.937.937 0 110-1.875h15a.937.937 0 110 1.875zM18.82 24.39a3.754 3.754 0 01-3.75-3.75.937.937 0 111.874 0c0 1.034.841 1.875 1.875 1.875s1.875-.84 1.875-1.875a.937.937 0 111.875 0 3.754 3.754 0 01-3.75 3.75z" fill="#A9AFC3"/><path d="M21.632 21.578h-5.625a.937.937 0 110-1.875h5.625a.937.937 0 110 1.875z" fill="#A9AFC3"/><path d="M16.007 21.578a.937.937 0 01-.889-1.235l2.812-8.438a.938.938 0 011.778.593l-2.812 8.438a.939.939 0 01-.89.642z" fill="#A9AFC3"/><path d="M21.631 21.578a.937.937 0 01-.888-.642l-2.813-8.438a.937.937 0 111.779-.593l2.812 8.438a.937.937 0 01-.89 1.235zm14.061 2.812a3.754 3.754 0 01-3.75-3.75.937.937 0 111.875 0c0 1.034.841 1.875 1.875 1.875s1.875-.84 1.875-1.875a.937.937 0 111.875 0 3.754 3.754 0 01-3.75 3.75z" fill="#A9AFC3"/><path d="M38.505 21.578H32.88a.937.937 0 110-1.875h5.625a.937.937 0 110 1.875z" fill="#A9AFC3"/><path d="M32.88 21.578a.937.937 0 01-.889-1.235l2.812-8.438a.938.938 0 011.778.593l-2.812 8.438a.94.94 0 01-.89.642z" fill="#A9AFC3"/><path d="M38.505 21.578a.937.937 0 01-.89-.642l-2.812-8.438a.938.938 0 011.779-.593l2.812 8.438a.936.936 0 01-.89 1.235z" fill="#A9AFC3"/></svg>