<svg width="55" height="60" fill="none" xmlns="http://www.w3.org/2000/svg"><path d="M53.432 60H.937a.936.936 0 110-1.875h52.495a.937.937 0 110 1.875z" fill="#A9AFC3"/><path d="M50.619 60a.936.936 0 01-.938-.937V56.25a.936.936 0 111.875 0v2.813c0 .518-.42.937-.937.937z" fill="#A9AFC3"/><path d="M50.619 57.188H3.75a.936.936 0 110-1.875h46.869a.937.937 0 110 1.875z" fill="#A9AFC3"/><path d="M3.75 60a.936.936 0 01-.938-.937V56.25a.936.936 0 111.876 0v2.813A.936.936 0 013.75 60zm44.053-2.814a.937.937 0 01-.937-.937v-2.813a.936.936 0 111.875 0v2.813c0 .518-.42.937-.938.937z" fill="#A9AFC3"/><path d="M47.803 54.374H6.565a.937.937 0 110-1.875h41.238a.937.937 0 110 1.875z" fill="#A9AFC3"/><path d="M6.565 57.186a.937.937 0 01-.937-.937v-2.813a.937.937 0 111.875 0v2.813a.937.937 0 01-.938.937zm12.185-2.813a.937.937 0 01-.937-.937v-1.87h-7.516v1.87a.937.937 0 11-1.875 0v-2.807c0-.518.419-.938.937-.938h9.391c.519 0 .938.42.938.938v2.807a.937.937 0 01-.938.937zm13.116 0a.937.937 0 01-.938-.937v-1.87h-7.516v1.87a.937.937 0 11-1.875 0v-2.807c0-.518.42-.938.938-.938h9.39c.52 0 .938.42.938.938v2.807a.936.936 0 01-.937.937zm13.139 0a.937.937 0 01-.938-.937v-1.87h-7.516v1.87a.937.937 0 11-1.875 0v-2.807c0-.518.42-.938.938-.938h9.39c.52 0 .938.42.938.938v2.807a.937.937 0 01-.938.937z" fill="#A9AFC3"/><path d="M11.247 51.566a.936.936 0 01-.937-.937v-19.22a.937.937 0 111.875 0v19.22c0 .518-.42.937-.938.937zm5.625 0a.936.936 0 01-.937-.937v-19.22a.937.937 0 111.875 0v19.22c0 .518-.42.937-.938.937z" fill="#A9AFC3"/><path d="M9.842 33.754a2.346 2.346 0 01-2.344-2.344 2.346 2.346 0 012.344-2.344 2.346 2.346 0 012.344 2.344 2.346 2.346 0 01-2.344 2.344zm0-2.813a.47.47 0 00-.469.469.47.47 0 00.469.469.47.47 0 00.469-.469.47.47 0 00-.469-.469zm8.437 2.813a2.346 2.346 0 01-2.344-2.344 2.346 2.346 0 012.344-2.344 2.346 2.346 0 012.343 2.344 2.346 2.346 0 01-2.343 2.344zm0-2.813a.47.47 0 00-.47.469.47.47 0 00.47.469.47.47 0 00.468-.469.47.47 0 00-.468-.469z" fill="#A9AFC3"/><path d="M50.622 30.941H3.748a.936.936 0 110-1.875h46.874a.937.937 0 110 1.875z" fill="#A9AFC3"/><path d="M24.372 51.566a.936.936 0 01-.937-.937v-19.22a.937.937 0 111.875 0v19.22c0 .518-.42.937-.938.937zm5.625 0a.936.936 0 01-.937-.937v-19.22a.937.937 0 111.875 0v19.22c0 .518-.42.937-.938.937z" fill="#A9AFC3"/><path d="M22.967 33.754a2.346 2.346 0 01-2.344-2.344 2.346 2.346 0 012.344-2.344 2.346 2.346 0 012.344 2.344 2.346 2.346 0 01-2.344 2.344zm0-2.813a.47.47 0 00-.469.469.47.47 0 00.469.469.47.47 0 00.469-.469.47.47 0 00-.47-.469zm8.437 2.813a2.346 2.346 0 01-2.344-2.344 2.346 2.346 0 012.344-2.344 2.346 2.346 0 012.343 2.344 2.346 2.346 0 01-2.343 2.344zm0-2.813a.47.47 0 00-.47.469.47.47 0 00.47.469.47.47 0 00.468-.469.47.47 0 00-.468-.469zm6.093 20.625a.936.936 0 01-.937-.937v-19.22a.937.937 0 111.875 0v19.22c0 .518-.42.937-.938.937zm5.625 0a.936.936 0 01-.937-.937v-19.22a.937.937 0 111.875 0v19.22c0 .518-.42.937-.938.937z" fill="#A9AFC3"/><path d="M36.092 33.754a2.346 2.346 0 01-2.344-2.344 2.346 2.346 0 012.344-2.344 2.346 2.346 0 012.343 2.344 2.346 2.346 0 01-2.343 2.344zm0-2.813a.47.47 0 00-.469.469.47.47 0 00.469.469.47.47 0 00.468-.469.47.47 0 00-.468-.469zm8.437 2.813a2.346 2.346 0 01-2.344-2.344 2.346 2.346 0 012.344-2.344 2.346 2.346 0 012.343 2.344 2.346 2.346 0 01-2.343 2.344zm0-2.813a.47.47 0 00-.47.469.47.47 0 00.47.469.47.47 0 00.468-.469.47.47 0 00-.468-.469zM14.054 46.878a.936.936 0 01-.938-.937V34.676a.937.937 0 111.876 0V45.94c0 .518-.42.937-.938.937zm13.131 0a.936.936 0 01-.938-.937V34.676a.937.937 0 111.875 0V45.94a.936.936 0 01-.937.937zm13.13 0a.937.937 0 01-.937-.937V34.676a.937.937 0 111.875 0V45.94a.936.936 0 01-.938.937zM3.748 30.941a.936.936 0 01-.937-.937V27.19a.937.937 0 111.875 0v2.813c0 .518-.42.937-.938.937zm46.874 0a.936.936 0 01-.937-.937V27.19a.937.937 0 111.875 0v2.813c0 .518-.42.937-.938.937z" fill="#A9AFC3"/><path d="M3.749 28.128a.937.937 0 01-.406-1.782l23.421-11.253a.937.937 0 11.811 1.69L4.154 28.036a.921.921 0 01-.405.092z" fill="#A9AFC3"/><path d="M50.621 28.129a.919.919 0 01-.405-.093L26.765 16.782a.936.936 0 11.81-1.69l23.453 11.254a.937.937 0 01-.407 1.783z" fill="#A9AFC3"/><path d="M50.622 28.129H3.748a.936.936 0 110-1.875h46.874a.937.937 0 110 1.875zM27.185 16.875c-4.653 0-8.437-3.785-8.437-8.438C18.748 3.785 22.532 0 27.185 0s8.438 3.785 8.438 8.438c0 4.652-3.785 8.437-8.438 8.437zm0-15a6.571 6.571 0 00-6.562 6.563A6.571 6.571 0 0027.185 15a6.571 6.571 0 006.563-6.563 6.571 6.571 0 00-6.563-6.562z" fill="#A9AFC3"/><path d="M29.073 13.123h-3.746a.937.937 0 110-1.874h3.746a.937.937 0 110 1.874z" fill="#A9AFC3"/><path d="M27.2 13.123a.937.937 0 01-.938-.937V4.687a.936.936 0 111.875 0v7.499c0 .518-.42.937-.937.937z" fill="#A9AFC3"/><path d="M30.011 6.562h-5.623a.936.936 0 110-1.875h5.623a.937.937 0 110 1.875zm.909 2.813h-.909a.936.936 0 110-1.875h.909a.936.936 0 110 1.875zm-6.533 0h-.936a.936.936 0 110-1.875h.936a.937.937 0 110 1.875z" fill="#A9AFC3"/></svg>