<svg width="64" height="60" fill="none" xmlns="http://www.w3.org/2000/svg"><path d="M60.032 56.557a2.122 2.122 0 00-2.117-2.118H36.751a2.118 2.118 0 00-2.116 2.118v1.854H31.46a.793.793 0 00-.56 1.356c.148.15.35.233.56.233h31.746a.793.793 0 000-1.589h-3.174v-1.854zm-1.587 1.854H36.221v-1.854a.53.53 0 01.53-.53h21.163a.529.529 0 01.53.53v1.854zm-27.382-4.283a.79.79 0 00.355-.084l6.314-3.17a.794.794 0 00-.712-1.42l-6.314 3.17a.794.794 0 00.357 1.504zm6.313-7.638a.793.793 0 00.686-1.195.794.794 0 00-.418-.348l-7.758-2.778a.794.794 0 10-.534 1.496l7.757 2.778c.085.03.176.047.267.047zm15.675-10.848a.794.794 0 001.104.204l6.124-4.213a.795.795 0 00-.9-1.31l-6.123 4.214a.795.795 0 00-.205 1.105zm1.316 3.892a.795.795 0 00.65.916l6.714 1.142a.793.793 0 10.266-1.567l-6.715-1.142a.793.793 0 00-.915.65z" fill="#A9AFC3"/><path d="M4.9 48.248a.793.793 0 001.11.163L30.73 29.97l3.004 4.036-1.485 1.107a.794.794 0 00-.163 1.112l3.952 5.309a.794.794 0 001.111.163l16.971-12.66a.795.795 0 00.162-1.112l-3.951-5.308a.794.794 0 00-1.112-.163l-1.485 1.108L36.035 7.848l1.485-1.107a.795.795 0 00.162-1.113L33.73.32a.795.795 0 00-1.11-.162l-16.972 12.66a.795.795 0 00-.162 1.111l3.952 5.31a.794.794 0 001.111.162l1.485-1.108 3.003 4.034L.32 40.767a.794.794 0 00-.163 1.111l4.743 6.37zm44.63-24.044l3.003 4.034-15.697 11.71-3.004-4.035 15.698-11.71zM20.237 17.65l-3.003-4.034 15.698-11.71 3.002 4.034-1.484 1.11-14.212 10.6zm3.07-.308l11.455-8.545L46.46 24.512l-11.455 8.545-11.698-15.714zm2.68 6.258l3.793 5.097-18.778 14.008-3.794-5.097L25.987 23.6zM5.934 38.56l3.794 5.096-4.03 3.007-3.794-5.096 4.03-3.007z" fill="#A9AFC3"/></svg>