<svg width="64" height="60" fill="none" xmlns="http://www.w3.org/2000/svg"><path d="M15.484 60C6.946 60 0 53.38 0 45.244c0-5.668 3.472-10.903 8.847-13.336.515-.23 1.132-.022 1.375.468.245.49.025 1.077-.49 1.31-4.657 2.11-7.667 6.645-7.667 11.558 0 7.051 6.02 12.789 13.419 12.789 7.4 0 13.42-5.738 13.42-12.789 0-4.91-3.01-9.448-7.667-11.558-.514-.233-.734-.82-.49-1.311.245-.49.86-.698 1.377-.467 5.373 2.435 8.844 7.67 8.844 13.336C30.968 53.381 24.022 60 15.484 60z" fill="#A9AFC3"/><path d="M15.484 56.065c-6.26 0-11.355-4.855-11.355-10.821 0-5.967 5.094-10.821 11.355-10.821 6.26 0 11.355 4.854 11.355 10.821 0 5.966-5.095 10.821-11.355 10.821zm0-19.675c-5.123 0-9.29 3.971-9.29 8.854 0 4.882 4.167 8.854 9.29 8.854 5.123 0 9.29-3.972 9.29-8.854 0-4.883-4.167-8.854-9.29-8.854z" fill="#A9AFC3"/><path d="M15.482 60c-.571 0-1.032-.44-1.032-.984s.46-.983 1.032-.983c.57 0 1.032-.441 1.032-.984 0-.543-.463-.984-1.032-.984-.571 0-1.032-.44-1.032-.984s.46-.983 1.032-.983c1.707 0 3.096 1.323 3.096 2.95 0 1.628-1.39 2.952-3.096 2.952zM9.29 33.781c-.57 0-1.032-.44-1.032-.983v-6.25c0-.543.461-.983 1.032-.983s1.033.44 1.033.984v6.248c0 .544-.462.984-1.033.984zm12.386 0c-.57 0-1.032-.44-1.032-.983v-6.25c0-.543.461-.983 1.032-.983.57 0 1.033.44 1.033.984v6.248c0 .544-.462.984-1.033.984z" fill="#A9AFC3"/><path d="M21.676 27.532H9.29c-.57 0-1.032-.439-1.032-.983s.461-.984 1.032-.984h12.386c.571 0 1.033.44 1.033.984s-.462.983-1.033.983zm-4.097 3.935c-.57 0-1.037-.44-1.037-.983 0-.544.456-.984 1.026-.984h.011c.57 0 1.032.44 1.032.984s-.462.983-1.032.983zM48.516 60c-8.538 0-15.484-6.62-15.484-14.756 0-5.666 3.472-10.9 8.844-13.336.516-.23 1.131-.022 1.376.467.244.49.024 1.078-.49 1.311-4.656 2.11-7.665 6.647-7.665 11.558 0 7.051 6.02 12.789 13.42 12.789 7.398 0 13.418-5.738 13.418-12.789 0-4.913-3.01-9.449-7.668-11.558-.516-.233-.735-.82-.49-1.31.243-.49.859-.699 1.375-.468C60.528 34.341 64 39.576 64 45.244 64 53.381 57.054 60 48.516 60z" fill="#A9AFC3"/><path d="M48.516 56.065c-6.26 0-11.355-4.855-11.355-10.821 0-5.967 5.094-10.821 11.355-10.821 6.26 0 11.355 4.854 11.355 10.821 0 5.966-5.094 10.821-11.355 10.821zm0-19.675c-5.123 0-9.29 3.971-9.29 8.854 0 4.882 4.167 8.854 9.29 8.854 5.123 0 9.29-3.972 9.29-8.854 0-4.883-4.167-8.854-9.29-8.854z" fill="#A9AFC3"/><path d="M48.518 60c-1.707 0-3.097-1.324-3.097-2.951 0-1.628 1.39-2.951 3.097-2.951.571 0 1.032.44 1.032.983 0 .544-.46.984-1.032.984-.57 0-1.032.44-1.032.984 0 .543.463.984 1.032.984.571 0 1.032.44 1.032.983 0 .544-.46.984-1.032.984zm6.192-26.219c-.571 0-1.032-.44-1.032-.983v-6.25c0-.543.46-.983 1.032-.983.57 0 1.032.44 1.032.984v6.248c0 .544-.461.984-1.032.984zm-12.386 0c-.57 0-1.032-.44-1.032-.983v-6.25c0-.543.461-.983 1.032-.983.57 0 1.032.44 1.032.984v6.248c0 .544-.461.984-1.032.984z" fill="#A9AFC3"/><path d="M54.71 27.532H42.324c-.57 0-1.032-.439-1.032-.983s.461-.984 1.032-.984H54.71c.57 0 1.032.44 1.032.984s-.461.983-1.032.983zm-8.228 3.935c-.57 0-1.037-.44-1.037-.983 0-.544.456-.984 1.026-.984h.011c.57 0 1.033.44 1.033.984s-.463.983-1.033.983zM17.55 26.553c-.57 0-1.032-.44-1.032-.984 0-.543-.462-.983-1.032-.983-.57 0-1.032.44-1.032.983 0 .544-.462.984-1.033.984-.57 0-1.032-.44-1.032-.984 0-1.627 1.39-2.95 3.097-2.95s3.097 1.323 3.097 2.95c0 .544-.461.984-1.032.984z" fill="#A9AFC3"/><path d="M50.583 26.553c-.57 0-1.033-.44-1.033-.984 0-.543-.462-.983-1.032-.983-.57 0-1.032.44-1.032.983 0 .544-.461.984-1.032.984-.57 0-1.033-.44-1.033-.984 0-1.627 1.39-2.95 3.097-2.95s3.097 1.323 3.097 2.95c0 .544-.461.984-1.032.984z" fill="#A9AFC3"/><path d="M48.52 24.574c-.57 0-1.032-.44-1.032-.984 0-5.687-3.333-10.771-8.699-13.268-.513-.239-.725-.828-.475-1.316.25-.489.872-.691 1.38-.453 6.082 2.83 9.858 8.593 9.858 15.037 0 .544-.46.984-1.032.984zm-33.036 0c-.571 0-1.032-.44-1.032-.984 0-6.457 3.788-12.224 9.885-15.05.514-.235 1.13-.032 1.38.455.248.49.035 1.079-.477 1.316-5.382 2.493-8.724 7.581-8.724 13.279 0 .544-.461.984-1.032.984zm-2.063 2.958c-.57 0-1.032-.439-1.032-.983v-.98c0-.544.462-.983 1.032-.983.572 0 1.033.44 1.033.983v.98c0 .544-.462.983-1.033.983zm4.129 0c-.57 0-1.032-.439-1.032-.983v-.98c0-.544.462-.983 1.033-.983.57 0 1.032.44 1.032.983v.98c0 .544-.461.983-1.032.983zm28.904 0c-.57 0-1.033-.439-1.033-.983v-.98c0-.544.462-.983 1.033-.983.57 0 1.032.44 1.032.983v.98c0 .544-.461.983-1.032.983zm4.129 0c-.57 0-1.032-.439-1.032-.983v-.98c0-.544.461-.983 1.032-.983.57 0 1.032.44 1.032.983v.98c0 .544-.461.983-1.032.983z" fill="#A9AFC3"/><path d="M32.017 15.74c-4.554 0-8.259-3.53-8.259-7.87S27.464 0 32.017 0c4.552 0 8.258 3.53 8.258 7.87s-3.706 7.87-8.258 7.87zm0-13.773c-3.416 0-6.194 2.648-6.194 5.903 0 3.255 2.778 5.902 6.194 5.902 3.415 0 6.193-2.647 6.193-5.902 0-3.255-2.779-5.903-6.193-5.903z" fill="#A9AFC3"/><path d="M32.017 18.693c-4.554 0-8.258-3.53-8.258-7.87 0-.544.462-.984 1.033-.984.57 0 1.032.44 1.032.984 0 3.255 2.778 5.902 6.193 5.902 3.414 0 6.192-2.647 6.192-5.902 0-.544.461-.984 1.032-.984.57 0 1.033.44 1.033.984 0 4.34-3.705 7.87-8.257 7.87z" fill="#A9AFC3"/><path d="M24.789 11.807c-.571 0-1.032-.44-1.032-.984V7.872c0-.544.46-.984 1.032-.984.57 0 1.032.44 1.032.984v2.951c0 .544-.463.984-1.032.984zm14.455 0c-.57 0-1.032-.44-1.032-.984V7.872c0-.544.461-.984 1.032-.984s1.033.44 1.033.984v2.951c0 .544-.463.984-1.033.984zm-7.227-.986c-.571 0-1.033-.44-1.033-.984V5.902c0-.544.462-.983 1.033-.983.57 0 1.032.44 1.032.983v3.935c0 .545-.463.984-1.032.984zM28.92 18.03c-.571 0-1.032-.44-1.032-.984v-2.953c0-.544.46-.984 1.032-.984.57 0 1.032.44 1.032.984v2.953c0 .544-.463.984-1.032.984zm6.194-.001c-.57 0-1.032-.44-1.032-.984v-2.952c0-.544.461-.984 1.032-.984.57 0 1.033.44 1.033.984v2.952c0 .544-.463.984-1.033.984z" fill="#A9AFC3"/></svg>